<?xml version="1.0" encoding="UTF-8" standalone="no"?>
<svg
   viewBox="0 0 1712.0001 1224.8"
   version="1.1"
   id="svg28"
   sodipodi:docname="template_large_badges.svg"
   width="17.833334in"
   height="12.758334in"
   inkscape:version="1.4.3 (0d15f75, 2025-12-25)"
   xmlns:inkscape="http://www.inkscape.org/namespaces/inkscape"
   xmlns:sodipodi="http://sodipodi.sourceforge.net/DTD/sodipodi-0.dtd"
   xmlns="http://www.w3.org/2000/svg"
   xmlns:svg="http://www.w3.org/2000/svg">
  <sodipodi:namedview
     id="namedview28"
     pagecolor="#ffffff"
     bordercolor="#000000"
     borderopacity="0.25"
     inkscape:showpageshadow="2"
     inkscape:pageopacity="0.0"
     inkscape:pagecheckerboard="0"
     inkscape:deskcolor="#d1d1d1"
     inkscape:document-units="in"
     inkscape:zoom="0.95199212"
     inkscape:cx="855.57431"
     inkscape:cy="612.40002"
     inkscape:window-width="3440"
     inkscape:window-height="1368"
     inkscape:window-x="0"
     inkscape:window-y="0"
     inkscape:window-maximized="1"
     inkscape:current-layer="svg28" />
  <defs
     id="defs1">
    <style
       id="style1">
      .cls-1 {
        stroke: #00a14b;
      }

      .cls-1, .cls-2, .cls-3, .cls-4, .cls-5 {
        fill: none;
        stroke-miterlimit: 10;
      }

      .cls-2 {
        stroke: #21409a;
      }

      .cls-3 {
        stroke: #231f20;
      }

      .cls-4 {
        stroke: #f26522;
      }

      .cls-5 {
        stroke: #ed1c24;
      }
    </style>
  </defs>
  <g
     id="Template">
    <rect
       id="Board_Area"
       data-name="Board Area"
       class="cls-5"
       x="0.5"
       y="0.5"
       width="1711"
       height="1223.8" />
    <g
       id="Badges">
      <g
         id="Column_5"
         data-name="Column 5">
        <path
           id="Row_5"
           data-name="Row 5"
           class="cls-3"
           d="m 1682,971.4 h -311 c -6.6,0 -12,5.4 -12,12 v 215 c 0,6.6 5.4,12 12,12 h 311 c 6.6,0 12,-5.4 12,-12 v -215 c 0,-6.6 -5.4,-12 -12,-12 z" />
        <path
           id="Row_4"
           data-name="Row 4"
           class="cls-3"
           d="m 1682,732.4 h -311 c -6.6,0 -12,5.4 -12,12 v 215 c 0,6.6 5.4,12 12,12 h 311 c 6.6,0 12,-5.4 12,-12 v -215 c 0,-6.6 -5.4,-12 -12,-12 z" />
        <path
           id="Row_3"
           data-name="Row 3"
           class="cls-3"
           d="m 1682,493.4 h -311 c -6.6,0 -12,5.4 -12,12 v 215 c 0,6.6 5.4,12 12,12 h 311 c 6.6,0 12,-5.4 12,-12 v -215 c 0,-6.6 -5.4,-12 -12,-12 z" />
        <path
           id="Row_2"
           data-name="Row 2"
           class="cls-3"
           d="m 1682,254.4 h -311 c -6.6,0 -12,5.4 -12,12 v 215 c 0,6.6 5.4,12 12,12 h 311 c 6.6,0 12,-5.4 12,-12 v -215 c 0,-6.6 -5.4,-12 -12,-12 z" />
        <path
           id="Row_1"
           data-name="Row 1"
           class="cls-3"
           d="m 1682,15.4 h -311 c -6.6,0 -12,5.4 -12,12 v 215 c 0,6.6 5.4,12 12,12 h 311 c 6.6,0 12,-5.4 12,-12 v -215 c 0,-6.6 -5.4,-12 -12,-12 z" />
      </g>
      <g
         id="Column_4"
         data-name="Column 4">
        <path
           id="Row_5-2"
           data-name="Row 5"
           class="cls-3"
           d="m 1347,971.4 h -311 c -6.6,0 -12,5.4 -12,12 v 215 c 0,6.6 5.4,12 12,12 h 311 c 6.6,0 12,-5.4 12,-12 v -215 c 0,-6.6 -5.4,-12 -12,-12 z" />
        <path
           id="Row_4-2"
           data-name="Row 4"
           class="cls-3"
           d="m 1347,732.4 h -311 c -6.6,0 -12,5.4 -12,12 v 215 c 0,6.6 5.4,12 12,12 h 311 c 6.6,0 12,-5.4 12,-12 v -215 c 0,-6.6 -5.4,-12 -12,-12 z" />
        <path
           id="Row_3-2"
           data-name="Row 3"
           class="cls-3"
           d="m 1347,493.4 h -311 c -6.6,0 -12,5.4 -12,12 v 215 c 0,6.6 5.4,12 12,12 h 311 c 6.6,0 12,-5.4 12,-12 v -215 c 0,-6.6 -5.4,-12 -12,-12 z" />
        <path
           id="Row_2-2"
           data-name="Row 2"
           class="cls-3"
           d="m 1347,254.4 h -311 c -6.6,0 -12,5.4 -12,12 v 215 c 0,6.6 5.4,12 12,12 h 311 c 6.6,0 12,-5.4 12,-12 v -215 c 0,-6.6 -5.4,-12 -12,-12 z" />
        <path
           id="Row_1-2"
           data-name="Row 1"
           class="cls-3"
           d="m 1347,15.4 h -311 c -6.6,0 -12,5.4 -12,12 v 215 c 0,6.6 5.4,12 12,12 h 311 c 6.6,0 12,-5.4 12,-12 v -215 c 0,-6.6 -5.4,-12 -12,-12 z" />
      </g>
      <g
         id="Column_3"
         data-name="Column 3">
        <path
           id="Row_5-3"
           data-name="Row 5"
           class="cls-3"
           d="M 1012,971.4 H 701 c -6.6,0 -12,5.4 -12,12 v 215 c 0,6.6 5.4,12 12,12 h 311 c 6.6,0 12,-5.4 12,-12 v -215 c 0,-6.6 -5.4,-12 -12,-12 z" />
        <path
           id="Row_4-3"
           data-name="Row 4"
           class="cls-3"
           d="M 1012,732.4 H 701 c -6.6,0 -12,5.4 -12,12 v 215 c 0,6.6 5.4,12 12,12 h 311 c 6.6,0 12,-5.4 12,-12 v -215 c 0,-6.6 -5.4,-12 -12,-12 z" />
        <path
           id="Row_3-3"
           data-name="Row 3"
           class="cls-3"
           d="M 1012,493.4 H 701 c -6.6,0 -12,5.4 -12,12 v 215 c 0,6.6 5.4,12 12,12 h 311 c 6.6,0 12,-5.4 12,-12 v -215 c 0,-6.6 -5.4,-12 -12,-12 z" />
        <path
           id="Row_2-3"
           data-name="Row 2"
           class="cls-3"
           d="M 1012,254.4 H 701 c -6.6,0 -12,5.4 -12,12 v 215 c 0,6.6 5.4,12 12,12 h 311 c 6.6,0 12,-5.4 12,-12 v -215 c 0,-6.6 -5.4,-12 -12,-12 z" />
        <path
           id="Row_1-3"
           data-name="Row 1"
           class="cls-3"
           d="M 1012,15.4 H 701 c -6.6,0 -12,5.4 -12,12 v 215 c 0,6.6 5.4,12 12,12 h 311 c 6.6,0 12,-5.4 12,-12 v -215 c 0,-6.6 -5.4,-12 -12,-12 z" />
      </g>
      <g
         id="Column_2"
         data-name="Column 2">
        <path
           id="Row_5-4"
           data-name="Row 5"
           class="cls-3"
           d="M 677,971.4 H 366 c -6.6,0 -12,5.4 -12,12 v 215 c 0,6.6 5.4,12 12,12 h 311 c 6.6,0 12,-5.4 12,-12 v -215 c 0,-6.6 -5.4,-12 -12,-12 z" />
        <path
           id="Row_4-4"
           data-name="Row 4"
           class="cls-3"
           d="M 677,732.4 H 366 c -6.6,0 -12,5.4 -12,12 v 215 c 0,6.6 5.4,12 12,12 h 311 c 6.6,0 12,-5.4 12,-12 v -215 c 0,-6.6 -5.4,-12 -12,-12 z" />
        <path
           id="Row_3-4"
           data-name="Row 3"
           class="cls-3"
           d="M 677,493.4 H 366 c -6.6,0 -12,5.4 -12,12 v 215 c 0,6.6 5.4,12 12,12 h 311 c 6.6,0 12,-5.4 12,-12 v -215 c 0,-6.6 -5.4,-12 -12,-12 z" />
        <path
           id="Row_2-4"
           data-name="Row 2"
           class="cls-3"
           d="M 677,254.4 H 366 c -6.6,0 -12,5.4 -12,12 v 215 c 0,6.6 5.4,12 12,12 h 311 c 6.6,0 12,-5.4 12,-12 v -215 c 0,-6.6 -5.4,-12 -12,-12 z" />
        <path
           id="Row_1-4"
           data-name="Row 1"
           class="cls-3"
           d="M 677,15.4 H 366 c -6.6,0 -12,5.4 -12,12 v 215 c 0,6.6 5.4,12 12,12 h 311 c 6.6,0 12,-5.4 12,-12 v -215 c 0,-6.6 -5.4,-12 -12,-12 z" />
      </g>
      <g
         id="Column_1"
         data-name="Column 1">
        <path
           id="Row_5-5"
           data-name="Row 5"
           class="cls-3"
           d="M 342,971.4 H 31 c -6.6,0 -12,5.4 -12,12 v 215 c 0,6.6 5.4,12 12,12 h 311 c 6.6,0 12,-5.4 12,-12 v -215 c 0,-6.6 -5.4,-12 -12,-12 z" />
        <path
           id="Row_4-5"
           data-name="Row 4"
           class="cls-3"
           d="M 342,732.4 H 31 c -6.6,0 -12,5.4 -12,12 v 215 c 0,6.6 5.4,12 12,12 h 311 c 6.6,0 12,-5.4 12,-12 v -215 c 0,-6.6 -5.4,-12 -12,-12 z" />
        <path
           id="Row_3-5"
           data-name="Row 3"
           class="cls-3"
           d="M 342,493.4 H 31 c -6.6,0 -12,5.4 -12,12 v 215 c 0,6.6 5.4,12 12,12 h 311 c 6.6,0 12,-5.4 12,-12 v -215 c 0,-6.6 -5.4,-12 -12,-12 z" />
        <path
           id="Row_2-5"
           data-name="Row 2"
           class="cls-3"
           d="M 342,254.4 H 31 c -6.6,0 -12,5.4 -12,12 v 215 c 0,6.6 5.4,12 12,12 h 311 c 6.6,0 12,-5.4 12,-12 v -215 c 0,-6.6 -5.4,-12 -12,-12 z" />
        <path
           id="Row_1-5"
           data-name="Row 1"
           class="cls-3"
           d="M 342,15.4 H 31 c -6.6,0 -12,5.4 -12,12 v 215 c 0,6.6 5.4,12 12,12 h 311 c 6.6,0 12,-5.4 12,-12 v -215 c 0,-6.6 -5.4,-12 -12,-12 z" />
      </g>
    </g>
    <g
       id="Holes_landscape_"
       data-name="Holes (landscape)">
      <g
         id="Column_5-2"
         data-name="Column 5">
        <path
           class="cls-1"
           d="m 1495,984.9 c -2.47,0 -4.5,2.02 -4.5,4.5 0,2.48 2.03,4.5 4.5,4.5 h 63 c 2.47,0 4.5,-2.02 4.5,-4.5 0,-2.48 -2.03,-4.5 -4.5,-4.5 z"
           id="path1" />
        <path
           class="cls-1"
           d="m 1495,745.9 c -2.47,0 -4.5,2.02 -4.5,4.5 0,2.48 2.03,4.5 4.5,4.5 h 63 c 2.47,0 4.5,-2.02 4.5,-4.5 0,-2.48 -2.03,-4.5 -4.5,-4.5 z"
           id="path2" />
        <path
           class="cls-1"
           d="m 1495,506.9 c -2.47,0 -4.5,2.02 -4.5,4.5 0,2.48 2.03,4.5 4.5,4.5 h 63 c 2.47,0 4.5,-2.02 4.5,-4.5 0,-2.48 -2.03,-4.5 -4.5,-4.5 z"
           id="path3" />
        <path
           class="cls-1"
           d="m 1495,267.9 c -2.47,0 -4.5,2.02 -4.5,4.5 0,2.48 2.03,4.5 4.5,4.5 h 63 c 2.47,0 4.5,-2.02 4.5,-4.5 0,-2.48 -2.03,-4.5 -4.5,-4.5 z"
           id="path4" />
        <path
           class="cls-1"
           d="m 1495,28.9 c -2.47,0 -4.5,2.02 -4.5,4.5 0,2.48 2.03,4.5 4.5,4.5 h 63 c 2.47,0 4.5,-2.02 4.5,-4.5 0,-2.48 -2.03,-4.5 -4.5,-4.5 z"
           id="path5" />
      </g>
      <g
         id="Column_4-2"
         data-name="Column 4">
        <path
           class="cls-1"
           d="m 1160,984.9 c -2.47,0 -4.5,2.02 -4.5,4.5 0,2.48 2.03,4.5 4.5,4.5 h 63 c 2.47,0 4.5,-2.02 4.5,-4.5 0,-2.48 -2.03,-4.5 -4.5,-4.5 z"
           id="path6" />
        <path
           class="cls-1"
           d="m 1160,745.9 c -2.47,0 -4.5,2.02 -4.5,4.5 0,2.48 2.03,4.5 4.5,4.5 h 63 c 2.47,0 4.5,-2.02 4.5,-4.5 0,-2.48 -2.03,-4.5 -4.5,-4.5 z"
           id="path7" />
        <path
           class="cls-1"
           d="m 1160,506.9 c -2.47,0 -4.5,2.02 -4.5,4.5 0,2.48 2.03,4.5 4.5,4.5 h 63 c 2.47,0 4.5,-2.02 4.5,-4.5 0,-2.48 -2.03,-4.5 -4.5,-4.5 z"
           id="path8" />
        <path
           class="cls-1"
           d="m 1160,267.9 c -2.47,0 -4.5,2.02 -4.5,4.5 0,2.48 2.03,4.5 4.5,4.5 h 63 c 2.47,0 4.5,-2.02 4.5,-4.5 0,-2.48 -2.03,-4.5 -4.5,-4.5 z"
           id="path9" />
        <path
           class="cls-1"
           d="m 1160,28.9 c -2.47,0 -4.5,2.02 -4.5,4.5 0,2.48 2.03,4.5 4.5,4.5 h 63 c 2.47,0 4.5,-2.02 4.5,-4.5 0,-2.48 -2.03,-4.5 -4.5,-4.5 z"
           id="path10" />
      </g>
      <g
         id="Column_3-2"
         data-name="Column 3">
        <path
           class="cls-1"
           d="m 825,984.9 c -2.47,0 -4.5,2.02 -4.5,4.5 0,2.48 2.03,4.5 4.5,4.5 h 63 c 2.47,0 4.5,-2.02 4.5,-4.5 0,-2.48 -2.03,-4.5 -4.5,-4.5 z"
           id="path11" />
        <path
           class="cls-1"
           d="m 825,745.9 c -2.47,0 -4.5,2.02 -4.5,4.5 0,2.48 2.03,4.5 4.5,4.5 h 63 c 2.47,0 4.5,-2.02 4.5,-4.5 0,-2.48 -2.03,-4.5 -4.5,-4.5 z"
           id="path12" />
        <path
           class="cls-1"
           d="m 825,506.9 c -2.47,0 -4.5,2.02 -4.5,4.5 0,2.48 2.03,4.5 4.5,4.5 h 63 c 2.47,0 4.5,-2.02 4.5,-4.5 0,-2.48 -2.03,-4.5 -4.5,-4.5 z"
           id="path13" />
        <path
           class="cls-1"
           d="m 825,267.9 c -2.47,0 -4.5,2.02 -4.5,4.5 0,2.48 2.03,4.5 4.5,4.5 h 63 c 2.47,0 4.5,-2.02 4.5,-4.5 0,-2.48 -2.03,-4.5 -4.5,-4.5 z"
           id="path14" />
        <path
           class="cls-1"
           d="m 825,28.9 c -2.47,0 -4.5,2.02 -4.5,4.5 0,2.48 2.03,4.5 4.5,4.5 h 63 c 2.47,0 4.5,-2.02 4.5,-4.5 0,-2.48 -2.03,-4.5 -4.5,-4.5 z"
           id="path15" />
      </g>
      <g
         id="Column_2-2"
         data-name="Column 2">
        <path
           class="cls-1"
           d="m 490,984.9 c -2.47,0 -4.5,2.02 -4.5,4.5 0,2.48 2.03,4.5 4.5,4.5 h 63 c 2.47,0 4.5,-2.02 4.5,-4.5 0,-2.48 -2.03,-4.5 -4.5,-4.5 z"
           id="path16" />
        <path
           class="cls-1"
           d="m 490,745.9 c -2.47,0 -4.5,2.02 -4.5,4.5 0,2.48 2.03,4.5 4.5,4.5 h 63 c 2.47,0 4.5,-2.02 4.5,-4.5 0,-2.48 -2.03,-4.5 -4.5,-4.5 z"
           id="path17" />
        <path
           class="cls-1"
           d="m 490,506.9 c -2.47,0 -4.5,2.02 -4.5,4.5 0,2.48 2.03,4.5 4.5,4.5 h 63 c 2.47,0 4.5,-2.02 4.5,-4.5 0,-2.48 -2.03,-4.5 -4.5,-4.5 z"
           id="path18" />
        <path
           class="cls-1"
           d="m 490,267.9 c -2.47,0 -4.5,2.02 -4.5,4.5 0,2.48 2.03,4.5 4.5,4.5 h 63 c 2.47,0 4.5,-2.02 4.5,-4.5 0,-2.48 -2.03,-4.5 -4.5,-4.5 z"
           id="path19" />
        <path
           class="cls-1"
           d="m 490,28.9 c -2.47,0 -4.5,2.02 -4.5,4.5 0,2.48 2.03,4.5 4.5,4.5 h 63 c 2.47,0 4.5,-2.02 4.5,-4.5 0,-2.48 -2.03,-4.5 -4.5,-4.5 z"
           id="path20" />
      </g>
      <g
         id="Column_1-2"
         data-name="Column 1">
        <path
           class="cls-1"
           d="m 155,984.9 c -2.47,0 -4.5,2.02 -4.5,4.5 0,2.48 2.03,4.5 4.5,4.5 h 63 c 2.47,0 4.5,-2.02 4.5,-4.5 0,-2.48 -2.03,-4.5 -4.5,-4.5 z"
           id="path21" />
        <path
           class="cls-1"
           d="m 155,745.9 c -2.47,0 -4.5,2.02 -4.5,4.5 0,2.48 2.03,4.5 4.5,4.5 h 63 c 2.47,0 4.5,-2.02 4.5,-4.5 0,-2.48 -2.03,-4.5 -4.5,-4.5 z"
           id="path22" />
        <path
           class="cls-1"
           d="m 155,506.9 c -2.47,0 -4.5,2.02 -4.5,4.5 0,2.48 2.03,4.5 4.5,4.5 h 63 c 2.47,0 4.5,-2.02 4.5,-4.5 0,-2.48 -2.03,-4.5 -4.5,-4.5 z"
           id="path23" />
        <path
           class="cls-1"
           d="m 155,267.9 c -2.47,0 -4.5,2.02 -4.5,4.5 0,2.48 2.03,4.5 4.5,4.5 h 63 c 2.47,0 4.5,-2.02 4.5,-4.5 0,-2.48 -2.03,-4.5 -4.5,-4.5 z"
           id="path24" />
        <path
           class="cls-1"
           d="m 155,28.9 c -2.47,0 -4.5,2.02 -4.5,4.5 0,2.48 2.03,4.5 4.5,4.5 h 63 c 2.47,0 4.5,-2.02 4.5,-4.5 0,-2.48 -2.03,-4.5 -4.5,-4.5 z"
           id="path25" />
      </g>
    </g>
    <g
       id="Holes_portrait_"
       data-name="Holes (portrait)">
      <g
         id="Column_5-3"
         data-name="Column 5">
        <path
           id="Row_5-6"
           data-name="Row 5"
           class="cls-2"
           d="m 1680.5,1059.4 v 63 c 0,2.48 -2.02,4.5 -4.5,4.5 -1.24,0 -2.36,-0.5 -3.18,-1.32 -0.82,-0.82 -1.32,-1.94 -1.32,-3.18 v -63 c 0,-2.47 2.03,-4.5 4.5,-4.5 1.24,0 2.36,0.51 3.18,1.32 0.82,0.82 1.32,1.94 1.32,3.18 z" />
        <path
           id="Row_4-6"
           data-name="Row 4"
           class="cls-2"
           d="m 1680.5,820.4 v 63 c 0,2.48 -2.02,4.5 -4.5,4.5 -1.24,0 -2.36,-0.5 -3.18,-1.32 -0.82,-0.82 -1.32,-1.94 -1.32,-3.18 v -63 c 0,-2.47 2.03,-4.5 4.5,-4.5 1.24,0 2.36,0.51 3.18,1.32 0.82,0.82 1.32,1.94 1.32,3.18 z" />
        <path
           id="Row_3-6"
           data-name="Row 3"
           class="cls-2"
           d="m 1680.5,581.4 v 63 c 0,2.48 -2.02,4.5 -4.5,4.5 -1.24,0 -2.36,-0.5 -3.18,-1.32 -0.82,-0.82 -1.32,-1.94 -1.32,-3.18 v -63 c 0,-2.47 2.03,-4.5 4.5,-4.5 1.24,0 2.36,0.51 3.18,1.32 0.82,0.82 1.32,1.94 1.32,3.18 z" />
        <path
           id="Row_2-6"
           data-name="Row 2"
           class="cls-2"
           d="m 1680.5,342.4 v 63 c 0,2.48 -2.02,4.5 -4.5,4.5 -1.24,0 -2.36,-0.5 -3.18,-1.32 -0.82,-0.82 -1.32,-1.94 -1.32,-3.18 v -63 c 0,-2.47 2.03,-4.5 4.5,-4.5 1.24,0 2.36,0.51 3.18,1.32 0.82,0.82 1.32,1.94 1.32,3.18 z" />
        <path
           id="Row_1-6"
           data-name="Row 1"
           class="cls-2"
           d="m 1680.5,103.4 v 63 c 0,2.48 -2.02,4.5 -4.5,4.5 -1.24,0 -2.36,-0.5 -3.18,-1.32 -0.82,-0.82 -1.32,-1.94 -1.32,-3.18 v -63 c 0,-2.47 2.03,-4.5 4.5,-4.5 1.24,0 2.36,0.51 3.18,1.32 0.82,0.82 1.32,1.94 1.32,3.18 z" />
      </g>
      <g
         id="Column_4-3"
         data-name="Column 4">
        <path
           id="Row_5-7"
           data-name="Row 5"
           class="cls-2"
           d="m 1345.5,1059.4 v 63 c 0,2.48 -2.02,4.5 -4.5,4.5 -1.24,0 -2.36,-0.5 -3.18,-1.32 -0.82,-0.82 -1.32,-1.94 -1.32,-3.18 v -63 c 0,-2.47 2.03,-4.5 4.5,-4.5 1.24,0 2.36,0.51 3.18,1.32 0.82,0.82 1.32,1.94 1.32,3.18 z" />
        <path
           id="Row_4-7"
           data-name="Row 4"
           class="cls-2"
           d="m 1345.5,820.4 v 63 c 0,2.48 -2.02,4.5 -4.5,4.5 -1.24,0 -2.36,-0.5 -3.18,-1.32 -0.82,-0.82 -1.32,-1.94 -1.32,-3.18 v -63 c 0,-2.47 2.03,-4.5 4.5,-4.5 1.24,0 2.36,0.51 3.18,1.32 0.82,0.82 1.32,1.94 1.32,3.18 z" />
        <path
           id="Row_3-7"
           data-name="Row 3"
           class="cls-2"
           d="m 1345.5,581.4 v 63 c 0,2.48 -2.02,4.5 -4.5,4.5 -1.24,0 -2.36,-0.5 -3.18,-1.32 -0.82,-0.82 -1.32,-1.94 -1.32,-3.18 v -63 c 0,-2.47 2.03,-4.5 4.5,-4.5 1.24,0 2.36,0.51 3.18,1.32 0.82,0.82 1.32,1.94 1.32,3.18 z" />
        <path
           id="Row_2-7"
           data-name="Row 2"
           class="cls-2"
           d="m 1345.5,342.4 v 63 c 0,2.48 -2.02,4.5 -4.5,4.5 -1.24,0 -2.36,-0.5 -3.18,-1.32 -0.82,-0.82 -1.32,-1.94 -1.32,-3.18 v -63 c 0,-2.47 2.03,-4.5 4.5,-4.5 1.24,0 2.36,0.51 3.18,1.32 0.82,0.82 1.32,1.94 1.32,3.18 z" />
        <path
           id="Row_1-7"
           data-name="Row 1"
           class="cls-2"
           d="m 1345.5,103.4 v 63 c 0,2.48 -2.02,4.5 -4.5,4.5 -1.24,0 -2.36,-0.5 -3.18,-1.32 -0.82,-0.82 -1.32,-1.94 -1.32,-3.18 v -63 c 0,-2.47 2.03,-4.5 4.5,-4.5 1.24,0 2.36,0.51 3.18,1.32 0.82,0.82 1.32,1.94 1.32,3.18 z" />
      </g>
      <g
         id="Column_3-3"
         data-name="Column 3">
        <path
           id="Row_5-8"
           data-name="Row 5"
           class="cls-2"
           d="m 1010.5,1059.4 v 63 c 0,2.48 -2.02,4.5 -4.5,4.5 -1.24,0 -2.36,-0.5 -3.18,-1.32 -0.82,-0.82 -1.32,-1.94 -1.32,-3.18 v -63 c 0,-2.47 2.03,-4.5 4.5,-4.5 1.24,0 2.36,0.51 3.18,1.32 0.82,0.82 1.32,1.94 1.32,3.18 z" />
        <path
           id="Row_4-8"
           data-name="Row 4"
           class="cls-2"
           d="m 1010.5,820.4 v 63 c 0,2.48 -2.02,4.5 -4.5,4.5 -1.24,0 -2.36,-0.5 -3.18,-1.32 -0.82,-0.82 -1.32,-1.94 -1.32,-3.18 v -63 c 0,-2.47 2.03,-4.5 4.5,-4.5 1.24,0 2.36,0.51 3.18,1.32 0.82,0.82 1.32,1.94 1.32,3.18 z" />
        <path
           id="Row_3-8"
           data-name="Row 3"
           class="cls-2"
           d="m 1010.5,581.4 v 63 c 0,2.48 -2.02,4.5 -4.5,4.5 -1.24,0 -2.36,-0.5 -3.18,-1.32 -0.82,-0.82 -1.32,-1.94 -1.32,-3.18 v -63 c 0,-2.47 2.03,-4.5 4.5,-4.5 1.24,0 2.36,0.51 3.18,1.32 0.82,0.82 1.32,1.94 1.32,3.18 z" />
        <path
           id="Row_2-8"
           data-name="Row 2"
           class="cls-2"
           d="m 1010.5,342.4 v 63 c 0,2.48 -2.02,4.5 -4.5,4.5 -1.24,0 -2.36,-0.5 -3.18,-1.32 -0.82,-0.82 -1.32,-1.94 -1.32,-3.18 v -63 c 0,-2.47 2.03,-4.5 4.5,-4.5 1.24,0 2.36,0.51 3.18,1.32 0.82,0.82 1.32,1.94 1.32,3.18 z" />
        <path
           id="Row_1-8"
           data-name="Row 1"
           class="cls-2"
           d="m 1010.5,103.4 v 63 c 0,2.48 -2.02,4.5 -4.5,4.5 -1.24,0 -2.36,-0.5 -3.18,-1.32 -0.82,-0.82 -1.32,-1.94 -1.32,-3.18 v -63 c 0,-2.47 2.03,-4.5 4.5,-4.5 1.24,0 2.36,0.51 3.18,1.32 0.82,0.82 1.32,1.94 1.32,3.18 z" />
      </g>
      <g
         id="Column_2-3"
         data-name="Column 2">
        <path
           id="Row_5-9"
           data-name="Row 5"
           class="cls-2"
           d="m 675.5,1059.4 v 63 c 0,2.48 -2.02,4.5 -4.5,4.5 -1.24,0 -2.36,-0.5 -3.18,-1.32 -0.82,-0.82 -1.32,-1.94 -1.32,-3.18 v -63 c 0,-2.47 2.03,-4.5 4.5,-4.5 1.24,0 2.36,0.51 3.18,1.32 0.82,0.82 1.32,1.94 1.32,3.18 z" />
        <path
           id="Row_4-9"
           data-name="Row 4"
           class="cls-2"
           d="m 675.5,820.4 v 63 c 0,2.48 -2.02,4.5 -4.5,4.5 -1.24,0 -2.36,-0.5 -3.18,-1.32 -0.82,-0.82 -1.32,-1.94 -1.32,-3.18 v -63 c 0,-2.47 2.03,-4.5 4.5,-4.5 1.24,0 2.36,0.51 3.18,1.32 0.82,0.82 1.32,1.94 1.32,3.18 z" />
        <path
           id="Row_3-9"
           data-name="Row 3"
           class="cls-2"
           d="m 675.5,581.4 v 63 c 0,2.48 -2.02,4.5 -4.5,4.5 -1.24,0 -2.36,-0.5 -3.18,-1.32 -0.82,-0.82 -1.32,-1.94 -1.32,-3.18 v -63 c 0,-2.47 2.03,-4.5 4.5,-4.5 1.24,0 2.36,0.51 3.18,1.32 0.82,0.82 1.32,1.94 1.32,3.18 z" />
        <path
           id="Row_2-9"
           data-name="Row 2"
           class="cls-2"
           d="m 675.5,342.4 v 63 c 0,2.48 -2.02,4.5 -4.5,4.5 -1.24,0 -2.36,-0.5 -3.18,-1.32 -0.82,-0.82 -1.32,-1.94 -1.32,-3.18 v -63 c 0,-2.47 2.03,-4.5 4.5,-4.5 1.24,0 2.36,0.51 3.18,1.32 0.82,0.82 1.32,1.94 1.32,3.18 z" />
        <path
           id="Row_1-9"
           data-name="Row 1"
           class="cls-2"
           d="m 675.5,103.4 v 63 c 0,2.48 -2.02,4.5 -4.5,4.5 -1.24,0 -2.36,-0.5 -3.18,-1.32 -0.82,-0.82 -1.32,-1.94 -1.32,-3.18 v -63 c 0,-2.47 2.03,-4.5 4.5,-4.5 1.24,0 2.36,0.51 3.18,1.32 0.82,0.82 1.32,1.94 1.32,3.18 z" />
      </g>
      <g
         id="Column_1-3"
         data-name="Column 1">
        <path
           id="Row_5-10"
           data-name="Row 5"
           class="cls-2"
           d="m 340.5,1059.4 v 63 c 0,2.48 -2.02,4.5 -4.5,4.5 -1.24,0 -2.36,-0.5 -3.18,-1.32 -0.82,-0.82 -1.32,-1.94 -1.32,-3.18 v -63 c 0,-2.47 2.03,-4.5 4.5,-4.5 1.24,0 2.36,0.51 3.18,1.32 0.82,0.82 1.32,1.94 1.32,3.18 z" />
        <path
           id="Row_4-10"
           data-name="Row 4"
           class="cls-2"
           d="m 340.5,820.4 v 63 c 0,2.48 -2.02,4.5 -4.5,4.5 -1.24,0 -2.36,-0.5 -3.18,-1.32 -0.82,-0.82 -1.32,-1.94 -1.32,-3.18 v -63 c 0,-2.47 2.03,-4.5 4.5,-4.5 1.24,0 2.36,0.51 3.18,1.32 0.82,0.82 1.32,1.94 1.32,3.18 z" />
        <path
           id="Row_3-10"
           data-name="Row 3"
           class="cls-2"
           d="m 340.5,581.4 v 63 c 0,2.48 -2.02,4.5 -4.5,4.5 -1.24,0 -2.36,-0.5 -3.18,-1.32 -0.82,-0.82 -1.32,-1.94 -1.32,-3.18 v -63 c 0,-2.47 2.03,-4.5 4.5,-4.5 1.24,0 2.36,0.51 3.18,1.32 0.82,0.82 1.32,1.94 1.32,3.18 z" />
        <path
           id="Row_2-10"
           data-name="Row 2"
           class="cls-2"
           d="m 340.5,342.4 v 63 c 0,2.48 -2.02,4.5 -4.5,4.5 -1.24,0 -2.36,-0.5 -3.18,-1.32 -0.82,-0.82 -1.32,-1.94 -1.32,-3.18 v -63 c 0,-2.47 2.03,-4.5 4.5,-4.5 1.24,0 2.36,0.51 3.18,1.32 0.82,0.82 1.32,1.94 1.32,3.18 z" />
        <path
           id="Row_1-10"
           data-name="Row 1"
           class="cls-2"
           d="m 340.5,103.4 v 63 c 0,2.48 -2.02,4.5 -4.5,4.5 -1.24,0 -2.36,-0.5 -3.18,-1.32 -0.82,-0.82 -1.32,-1.94 -1.32,-3.18 v -63 c 0,-2.47 2.03,-4.5 4.5,-4.5 1.24,0 2.36,0.51 3.18,1.32 0.82,0.82 1.32,1.94 1.32,3.18 z" />
      </g>
    </g>
  </g>
  <g
     id="Print-Cut_Guides"
     data-name="Print-Cut Guides">
    <g
       id="Upper-left_Point"
       data-name="Upper-left Point">
      <line
         class="cls-4"
         x1="9.5"
         y1="14.9"
         x2="27.5"
         y2="14.9"
         id="line25" />
      <line
         class="cls-4"
         x1="18.5"
         y1="5.9000001"
         x2="18.5"
         y2="23.9"
         id="line26" />
    </g>
    <g
       id="Lower-right_Point"
       data-name="Lower-right Point">
      <line
         class="cls-4"
         x1="1684.5"
         y1="1209.9"
         x2="1702.5"
         y2="1209.9"
         id="line27" />
      <line
         class="cls-4"
         x1="1693.5"
         y1="1200.9"
         x2="1693.5"
         y2="1218.9"
         id="line28" />
    </g>
  </g>
</svg>
