<?xml version="1.0" encoding="UTF-8" standalone="no"?>
<svg
   id="badge"
   viewBox="0 0 336 240"
   version="1.1"
   sodipodi:docname="template_single.svg"
   width="3.5in"
   height="2.5in"
   inkscape:version="1.4.3 (0d15f75, 2025-12-25)"
   xmlns:inkscape="http://www.inkscape.org/namespaces/inkscape"
   xmlns:sodipodi="http://sodipodi.sourceforge.net/DTD/sodipodi-0.dtd"
   xmlns="http://www.w3.org/2000/svg"
   xmlns:svg="http://www.w3.org/2000/svg">
  <sodipodi:namedview
     id="namedview1"
     pagecolor="#ffffff"
     bordercolor="#000000"
     borderopacity="0.25"
     inkscape:showpageshadow="2"
     inkscape:pageopacity="0.0"
     inkscape:pagecheckerboard="0"
     inkscape:deskcolor="#d1d1d1"
     showgrid="false"
     inkscape:document-units="in"
     inkscape:zoom="6.441989"
     inkscape:cx="168"
     inkscape:cy="120"
     inkscape:window-width="3440"
     inkscape:window-height="1368"
     inkscape:window-x="0"
     inkscape:window-y="0"
     inkscape:window-maximized="1"
     inkscape:current-layer="badge" />
  <defs
     id="defs1">
    <style
       id="style1">
      .cls-1 {
        stroke: #00a14b;
      }

      .cls-1, .cls-2, .cls-3 {
        fill: none;
        stroke-miterlimit: 10;
      }

      .cls-2 {
        stroke: #21409a;
      }

      .cls-3 {
        stroke: #231f20;
      }
    </style>
  </defs>
  <path
     id="border"
     class="cls-3"
     d="m 323.5,0.5 h -311 c -6.6,0 -12,5.4 -12,12 v 215 c 0,6.6 5.4,12 12,12 h 311 c 6.6,0 12,-5.4 12,-12 v -215 c 0,-6.6 -5.4,-12 -12,-12 z" />
  <path
     id="landscape"
     class="cls-1"
     d="m 204,18.5 c 0,1.24 -0.5,2.36 -1.32,3.18 C 201.86,22.5 200.74,23 199.5,23 H 136.5 c -2.48,0 -4.5,-2.02 -4.5,-4.5 0,-1.24 0.5,-2.36 1.32,-3.18 C 134.14,14.5 135.26,14 136.5,14 h 63 c 2.48,0 4.5,2.02 4.5,4.5 z" />
  <path
     id="portrait"
     class="cls-2"
     d="m 322,88.5 v 63 c 0,2.48 -2.02,4.5 -4.5,4.5 -1.24,0 -2.36,-0.5 -3.18,-1.32 C 313.5,153.86 313,152.74 313,151.5 V 88.5 c 0,-2.47 2.03,-4.5 4.5,-4.5 1.24,0 2.36,0.51 3.18,1.32 0.82,0.82 1.32,1.94 1.32,3.18 z" />
</svg>
